<?xml version="1.0" encoding="utf-8"?>
<!-- Generator: Adobe Illustrator 27.2.0, SVG Export Plug-In . SVG Version: 6.00 Build 0)  -->
<svg version="1.1" id="Capa_1" xmlns="http://www.w3.org/2000/svg" xmlns:xlink="http://www.w3.org/1999/xlink" x="0px" y="0px"
	 viewBox="0 0 97.1 97" style="enable-background:new 0 0 97.1 97;" xml:space="preserve">
<style type="text/css">
	.st0{fill:#8BC34A;}
	.st1{fill:#FFFFFF;}
</style>
<g>
	<path class="st0" d="M96.6,48c0.2-10.3-2.1-22.5-7-36.8L85.9,0l-5.1,10.7c-0.3,0.6-0.6,1.1-0.9,1.7C71.5,5.1,60.5,0.7,48.5,0.7
		C22,0.7,0.4,22.3,0.4,48.9S22,97,48.5,97s48.1-21.6,48.1-48.1C96.7,48.6,96.7,48.3,96.6,48z"/>
	<path class="st1" d="M85.6,69.5c-7.5,10.4-20.8,10.9-33.3,10.7H35.9h-4.7c10.7-3.8,17-4.7,23.5-8.2C66.9,65.6,79,51.5,81.5,36.9
		c-4.6,14-18.7,26.1-31.6,31c-8.8,3.4-24.7,6.6-24.7,6.6l-0.6-0.3c-10.8-5.4-11.1-29.6,8.5-37.5c8.6-3.4,16.8-1.5,26.1-3.8
		c9.9-2.4,21.4-10.1,26.1-20.2C90.6,28.8,96.9,53.9,85.6,69.5L85.6,69.5z M28.5,83.6c-0.7,0.8-1.7,1.3-2.8,1.3c-2,0-3.6-1.6-3.6-3.6
		c0-2,1.6-3.6,3.6-3.6c0.8,0,1.6,0.3,2.3,0.8C29.5,79.8,29.7,82.1,28.5,83.6L28.5,83.6z"/>
</g>
</svg>
